<svg viewBox="0 0 162 60" fill="none" xmlns="http://www.w3.org/2000/svg">
<path d="M72.9599 26V12H78.6599C79.4199 12 80.1066 12.1933 80.7199 12.58C81.3466 12.9533 81.8466 13.4667 82.2199 14.12C82.5933 14.7733 82.7799 15.5 82.7799 16.3C82.7799 17.1 82.5933 17.8267 82.2199 18.48C81.8466 19.1333 81.3466 19.66 80.7199 20.06C80.1066 20.4467 79.4199 20.64 78.6599 20.64H75.1199V26H72.9599ZM75.1199 18.56H78.6199C78.9799 18.56 79.3066 18.46 79.5999 18.26C79.8933 18.0467 80.1266 17.7733 80.2999 17.44C80.4866 17.0933 80.5799 16.7133 80.5799 16.3C80.5799 15.8867 80.4866 15.5133 80.2999 15.18C80.1266 14.8467 79.8933 14.58 79.5999 14.38C79.3066 14.18 78.9799 14.08 78.6199 14.08H75.1199V18.56Z" fill="#083366"/>
<path d="M85.1157 26V15.5H87.1957V18.8L86.9957 18C87.1424 17.4933 87.3891 17.0333 87.7357 16.62C88.0957 16.2067 88.5024 15.88 88.9557 15.64C89.4224 15.4 89.9024 15.28 90.3957 15.28C90.6224 15.28 90.8357 15.3 91.0357 15.34C91.2491 15.38 91.4157 15.4267 91.5357 15.48L90.9957 17.72C90.8357 17.6533 90.6557 17.6 90.4557 17.56C90.2691 17.5067 90.0824 17.48 89.8957 17.48C89.5357 17.48 89.1891 17.5533 88.8557 17.7C88.5357 17.8333 88.2491 18.0267 87.9957 18.28C87.7557 18.52 87.5624 18.8067 87.4157 19.14C87.2691 19.46 87.1957 19.8133 87.1957 20.2V26H85.1157Z" fill="#083366"/>
<path d="M97.4529 26.2C96.4262 26.2 95.5062 25.9667 94.6929 25.5C93.8929 25.02 93.2596 24.3733 92.7929 23.56C92.3262 22.7333 92.0929 21.7933 92.0929 20.74C92.0929 19.6867 92.3262 18.7533 92.7929 17.94C93.2596 17.1133 93.8929 16.4667 94.6929 16C95.5062 15.52 96.4262 15.28 97.4529 15.28C98.4662 15.28 99.3729 15.52 100.173 16C100.986 16.4667 101.626 17.1133 102.093 17.94C102.56 18.7533 102.793 19.6867 102.793 20.74C102.793 21.7933 102.56 22.7333 102.093 23.56C101.626 24.3733 100.986 25.02 100.173 25.5C99.3729 25.9667 98.4662 26.2 97.4529 26.2ZM97.4529 24.32C98.0796 24.32 98.6396 24.1667 99.1329 23.86C99.6262 23.54 100.013 23.1133 100.293 22.58C100.573 22.0333 100.706 21.42 100.693 20.74C100.706 20.0467 100.573 19.4333 100.293 18.9C100.013 18.3533 99.6262 17.9267 99.1329 17.62C98.6396 17.3133 98.0796 17.16 97.4529 17.16C96.8262 17.16 96.2596 17.32 95.7529 17.64C95.2596 17.9467 94.8729 18.3733 94.5929 18.92C94.3129 19.4533 94.1796 20.06 94.1929 20.74C94.1796 21.42 94.3129 22.0333 94.5929 22.58C94.8729 23.1133 95.2596 23.54 95.7529 23.86C96.2596 24.1667 96.8262 24.32 97.4529 24.32Z" fill="#083366"/>
<path d="M104.998 26V15.5H107.078V17.74L106.698 17.98C106.804 17.6333 106.971 17.3 107.198 16.98C107.438 16.66 107.724 16.38 108.058 16.14C108.404 15.8867 108.771 15.6867 109.158 15.54C109.558 15.3933 109.964 15.32 110.378 15.32C110.978 15.32 111.504 15.42 111.958 15.62C112.411 15.82 112.784 16.12 113.078 16.52C113.371 16.92 113.584 17.42 113.718 18.02L113.398 17.94L113.538 17.6C113.684 17.2933 113.884 17.0067 114.138 16.74C114.404 16.46 114.704 16.2133 115.038 16C115.371 15.7867 115.724 15.62 116.098 15.5C116.471 15.38 116.838 15.32 117.198 15.32C117.984 15.32 118.631 15.48 119.138 15.8C119.658 16.12 120.044 16.6067 120.298 17.26C120.564 17.9133 120.698 18.7267 120.698 19.7V26H118.618V19.82C118.618 19.22 118.538 18.7333 118.378 18.36C118.231 17.9733 118.004 17.6867 117.698 17.5C117.391 17.3133 116.998 17.22 116.518 17.22C116.144 17.22 115.791 17.2867 115.458 17.42C115.138 17.54 114.858 17.7133 114.618 17.94C114.378 18.1667 114.191 18.4333 114.058 18.74C113.924 19.0333 113.858 19.36 113.858 19.72V26H111.778V19.78C111.778 19.2333 111.698 18.7733 111.538 18.4C111.378 18.0133 111.144 17.72 110.838 17.52C110.531 17.32 110.158 17.22 109.718 17.22C109.344 17.22 108.998 17.2867 108.678 17.42C108.358 17.54 108.078 17.7133 107.838 17.94C107.598 18.1533 107.411 18.4133 107.278 18.72C107.144 19.0133 107.078 19.3333 107.078 19.68V26H104.998Z" fill="#083366"/>
<path d="M123.456 30.4V15.5H125.536V17.9L125.216 17.72C125.296 17.32 125.522 16.94 125.896 16.58C126.269 16.2067 126.722 15.9067 127.256 15.68C127.802 15.44 128.362 15.32 128.936 15.32C129.882 15.32 130.722 15.5533 131.456 16.02C132.189 16.4867 132.769 17.1267 133.196 17.94C133.622 18.7533 133.836 19.6867 133.836 20.74C133.836 21.78 133.622 22.7133 133.196 23.54C132.782 24.3533 132.209 25 131.476 25.48C130.742 25.9467 129.916 26.18 128.996 26.18C128.382 26.18 127.789 26.06 127.216 25.82C126.642 25.5667 126.156 25.2467 125.756 24.86C125.356 24.4733 125.109 24.0733 125.016 23.66L125.536 23.38V30.4H123.456ZM128.656 24.28C129.269 24.28 129.816 24.1267 130.296 23.82C130.776 23.5133 131.156 23.0933 131.436 22.56C131.716 22.0267 131.856 21.42 131.856 20.74C131.856 20.06 131.716 19.46 131.436 18.94C131.169 18.4067 130.796 17.9867 130.316 17.68C129.836 17.3733 129.282 17.22 128.656 17.22C128.029 17.22 127.476 17.3733 126.996 17.68C126.516 17.9733 126.136 18.3867 125.856 18.92C125.576 19.4533 125.436 20.06 125.436 20.74C125.436 21.42 125.576 22.0267 125.856 22.56C126.136 23.0933 126.516 23.5133 126.996 23.82C127.476 24.1267 128.029 24.28 128.656 24.28Z" fill="#083366"/>
<path d="M137.373 26V12.82H139.433V26H137.373ZM135.193 17.5V15.5H141.873V17.5H135.193Z" fill="#083366"/>
<path d="M72.4399 48V46H74.6999V36H72.4399V34H79.1199V36H76.8599V46H79.1199V48H72.4399Z" fill="#083366"/>
<path d="M81.9907 48V37.5H84.0507V39.66L83.6907 39.9C83.8241 39.4333 84.0841 39.0067 84.4707 38.62C84.8574 38.22 85.3174 37.9 85.8507 37.66C86.3841 37.4067 86.9307 37.28 87.4907 37.28C88.2907 37.28 88.9574 37.44 89.4907 37.76C90.0241 38.0667 90.4241 38.54 90.6907 39.18C90.9574 39.82 91.0907 40.6267 91.0907 41.6V48H89.0307V41.74C89.0307 41.14 88.9507 40.6467 88.7907 40.26C88.6307 39.86 88.3841 39.5733 88.0507 39.4C87.7174 39.2133 87.3041 39.1333 86.8107 39.16C86.4107 39.16 86.0441 39.2267 85.7107 39.36C85.3774 39.48 85.0841 39.6533 84.8307 39.88C84.5907 40.1067 84.3974 40.3733 84.2507 40.68C84.1174 40.9733 84.0507 41.2933 84.0507 41.64V48H83.0307C82.8574 48 82.6841 48 82.5107 48C82.3374 48 82.1641 48 81.9907 48Z" fill="#083366"/>
<path d="M97.3253 48L92.8853 37.5H95.1053L98.3053 45.36L97.9253 45.54L101.345 37.5H103.465L98.8053 48H97.3253Z" fill="#083366"/>
<path d="M109.957 48.2C108.877 48.2 107.917 47.9733 107.077 47.52C106.25 47.0533 105.597 46.42 105.117 45.62C104.65 44.82 104.417 43.9 104.417 42.86C104.417 42.0333 104.55 41.28 104.817 40.6C105.084 39.92 105.45 39.3333 105.917 38.84C106.397 38.3333 106.964 37.9467 107.617 37.68C108.284 37.4 109.004 37.26 109.777 37.26C110.457 37.26 111.09 37.3933 111.677 37.66C112.264 37.9133 112.77 38.2667 113.197 38.72C113.637 39.1733 113.97 39.7133 114.197 40.34C114.437 40.9533 114.55 41.6267 114.537 42.36L114.517 43.24H105.937L105.477 41.6H112.737L112.437 41.94V41.46C112.397 41.02 112.25 40.6267 111.997 40.28C111.744 39.9333 111.424 39.66 111.037 39.46C110.65 39.26 110.23 39.16 109.777 39.16C109.057 39.16 108.45 39.3 107.957 39.58C107.464 39.8467 107.09 40.2467 106.837 40.78C106.584 41.3 106.457 41.9467 106.457 42.72C106.457 43.4533 106.61 44.0933 106.917 44.64C107.224 45.1733 107.657 45.5867 108.217 45.88C108.777 46.1733 109.424 46.32 110.157 46.32C110.677 46.32 111.157 46.2333 111.597 46.06C112.05 45.8867 112.537 45.5733 113.057 45.12L114.097 46.58C113.777 46.9 113.384 47.18 112.917 47.42C112.464 47.66 111.977 47.8533 111.457 48C110.95 48.1333 110.45 48.2 109.957 48.2Z" fill="#083366"/>
<path d="M116.776 48V37.5H118.856V40.8L118.656 40C118.803 39.4933 119.049 39.0333 119.396 38.62C119.756 38.2067 120.163 37.88 120.616 37.64C121.083 37.4 121.563 37.28 122.056 37.28C122.283 37.28 122.496 37.3 122.696 37.34C122.909 37.38 123.076 37.4267 123.196 37.48L122.656 39.72C122.496 39.6533 122.316 39.6 122.116 39.56C121.929 39.5067 121.743 39.48 121.556 39.48C121.196 39.48 120.849 39.5533 120.516 39.7C120.196 39.8333 119.909 40.0267 119.656 40.28C119.416 40.52 119.223 40.8067 119.076 41.14C118.929 41.46 118.856 41.8133 118.856 42.2V48H116.776Z" fill="#083366"/>
<path d="M128.342 48.2C127.462 48.2 126.669 48.0467 125.962 47.74C125.256 47.4333 124.669 46.98 124.202 46.38L125.602 45.18C126.002 45.6467 126.436 45.9867 126.902 46.2C127.382 46.4 127.922 46.5 128.522 46.5C128.762 46.5 128.982 46.4733 129.182 46.42C129.396 46.3533 129.576 46.26 129.722 46.14C129.882 46.02 130.002 45.88 130.082 45.72C130.162 45.5467 130.202 45.36 130.202 45.16C130.202 44.8133 130.076 44.5333 129.822 44.32C129.689 44.2267 129.476 44.1267 129.182 44.02C128.902 43.9 128.536 43.78 128.082 43.66C127.309 43.46 126.676 43.2333 126.182 42.98C125.689 42.7267 125.309 42.44 125.042 42.12C124.842 41.8667 124.696 41.5933 124.602 41.3C124.509 40.9933 124.462 40.66 124.462 40.3C124.462 39.86 124.556 39.46 124.742 39.1C124.942 38.7267 125.209 38.4067 125.542 38.14C125.889 37.86 126.289 37.6467 126.742 37.5C127.209 37.3533 127.702 37.28 128.222 37.28C128.716 37.28 129.202 37.3467 129.682 37.48C130.176 37.6133 130.629 37.8067 131.042 38.06C131.456 38.3133 131.802 38.6133 132.082 38.96L130.902 40.26C130.649 40.0067 130.369 39.7867 130.062 39.6C129.769 39.4 129.469 39.2467 129.162 39.14C128.856 39.0333 128.576 38.98 128.322 38.98C128.042 38.98 127.789 39.0067 127.562 39.06C127.336 39.1133 127.142 39.1933 126.982 39.3C126.836 39.4067 126.722 39.54 126.642 39.7C126.562 39.86 126.522 40.04 126.522 40.24C126.536 40.4133 126.576 40.58 126.642 40.74C126.722 40.8867 126.829 41.0133 126.962 41.12C127.109 41.2267 127.329 41.34 127.622 41.46C127.916 41.58 128.289 41.6933 128.742 41.8C129.409 41.9733 129.956 42.1667 130.382 42.38C130.822 42.58 131.169 42.8133 131.422 43.08C131.689 43.3333 131.876 43.6267 131.982 43.96C132.089 44.2933 132.142 44.6667 132.142 45.08C132.142 45.68 131.969 46.22 131.622 46.7C131.289 47.1667 130.836 47.5333 130.262 47.8C129.689 48.0667 129.049 48.2 128.342 48.2Z" fill="#083366"/>
<path d="M134.753 48V37.5H136.813V48H134.753ZM135.753 35.18C135.313 35.18 134.973 35.0667 134.733 34.84C134.493 34.6133 134.373 34.2933 134.373 33.88C134.373 33.4933 134.493 33.18 134.733 32.94C134.986 32.7 135.326 32.58 135.753 32.58C136.193 32.58 136.533 32.6933 136.773 32.92C137.013 33.1467 137.133 33.4667 137.133 33.88C137.133 34.2667 137.006 34.58 136.753 34.82C136.513 35.06 136.179 35.18 135.753 35.18Z" fill="#083366"/>
<path d="M144.699 48.2C143.672 48.2 142.752 47.9667 141.939 47.5C141.139 47.02 140.506 46.3733 140.039 45.56C139.572 44.7333 139.339 43.7933 139.339 42.74C139.339 41.6867 139.572 40.7533 140.039 39.94C140.506 39.1133 141.139 38.4667 141.939 38C142.752 37.52 143.672 37.28 144.699 37.28C145.712 37.28 146.619 37.52 147.419 38C148.232 38.4667 148.872 39.1133 149.339 39.94C149.806 40.7533 150.039 41.6867 150.039 42.74C150.039 43.7933 149.806 44.7333 149.339 45.56C148.872 46.3733 148.232 47.02 147.419 47.5C146.619 47.9667 145.712 48.2 144.699 48.2ZM144.699 46.32C145.326 46.32 145.886 46.1667 146.379 45.86C146.872 45.54 147.259 45.1133 147.539 44.58C147.819 44.0333 147.952 43.42 147.939 42.74C147.952 42.0467 147.819 41.4333 147.539 40.9C147.259 40.3533 146.872 39.9267 146.379 39.62C145.886 39.3133 145.326 39.16 144.699 39.16C144.072 39.16 143.506 39.32 142.999 39.64C142.506 39.9467 142.119 40.3733 141.839 40.92C141.559 41.4533 141.426 42.06 141.439 42.74C141.426 43.42 141.559 44.0333 141.839 44.58C142.119 45.1133 142.506 45.54 142.999 45.86C143.506 46.1667 144.072 46.32 144.699 46.32Z" fill="#083366"/>
<path d="M152.284 48V37.5H154.344V39.66L153.984 39.9C154.117 39.4333 154.377 39.0067 154.764 38.62C155.15 38.22 155.61 37.9 156.144 37.66C156.677 37.4067 157.224 37.28 157.784 37.28C158.584 37.28 159.25 37.44 159.784 37.76C160.317 38.0667 160.717 38.54 160.984 39.18C161.25 39.82 161.384 40.6267 161.384 41.6V48H159.324V41.74C159.324 41.14 159.244 40.6467 159.084 40.26C158.924 39.86 158.677 39.5733 158.344 39.4C158.01 39.2133 157.597 39.1333 157.104 39.16C156.704 39.16 156.337 39.2267 156.004 39.36C155.67 39.48 155.377 39.6533 155.124 39.88C154.884 40.1067 154.69 40.3733 154.544 40.68C154.41 40.9733 154.344 41.2933 154.344 41.64V48H153.324C153.15 48 152.977 48 152.804 48C152.63 48 152.457 48 152.284 48Z" fill="#083366"/>
<mask id="mask0_671_274" style="mask-type:alpha" maskUnits="userSpaceOnUse" x="0" y="0" width="60" height="60">
<circle cx="30" cy="30" r="29.25" fill="#D9D9D9" stroke="#083366" stroke-width="1.5"/>
</mask>
<g mask="url(#mask0_671_274)">
<path fill-rule="evenodd" clip-rule="evenodd" d="M22.5023 16.5371C26.4511 13.8871 30.4495 13.25 34.4737 13.25C37.4343 13.25 39.1597 14.5278 40.6486 15.7499C40.7449 15.8289 40.8398 15.9073 40.9338 15.9849L40.934 15.9851C42.2938 17.1076 43.438 18.0523 45.3179 18.2232C47.6307 18.4334 49.3308 18.8615 50.469 19.5809C51.0505 19.9484 51.4974 20.3995 51.7948 20.943C52.0921 21.4864 52.2171 22.0805 52.2171 22.7004C52.2171 25.0806 50.3969 29.5385 45.4468 30.8846C45.2751 30.9313 45.1058 30.9735 44.939 31.0113C43.0987 32.4469 42.1821 35.5091 42.9755 41.2922C43.4109 40.9258 43.8457 40.5051 44.2781 40.0247L44.8327 39.4084L45.3905 40.0219C46.6968 41.4588 49.025 43.1699 51.7264 43.664C54.3622 44.1461 57.4488 43.4909 60.4324 40.0362C60.7031 39.7227 61.1767 39.6881 61.4902 39.9588C61.8037 40.2295 61.8384 40.7031 61.5676 41.0166C58.2512 44.8567 54.6371 45.7212 51.4565 45.1395C48.709 44.637 46.3589 43.0713 44.843 41.6092C41.8422 44.6197 38.6275 45.2863 35.7845 44.7882C33.168 44.3297 30.927 42.8982 29.4817 41.5607C26.0294 44.6071 22.6466 45.2906 19.7658 44.7883C17.1938 44.3399 15.097 42.9602 13.7595 41.637C11.0294 44.477 7.8209 45.0764 4.90778 44.614C1.83964 44.1271 -0.896083 42.4708 -2.4902 41.094C-2.80369 40.8233 -2.83834 40.3497 -2.5676 40.0362C-2.29687 39.7227 -1.82326 39.6881 -1.50977 39.9588C-0.0644183 41.2071 2.42222 42.7008 5.1429 43.1326C5.85779 43.246 6.58902 43.2868 7.32378 43.2297L7.34811 43.1286C7.8082 41.2169 9.00624 36.2391 10.9862 31.5281L10.9942 31.5091L11.0033 31.4906C14.7658 23.7583 18.57 19.1762 22.5023 16.5371ZM41.6035 42.2734C40.8112 37.2013 41.1525 33.5661 42.6777 31.2744C41.4835 31.2716 40.4499 31.0265 39.5624 30.6399C38.0645 29.9875 37.042 28.958 36.3801 28.149C36.1178 27.8284 36.165 27.3559 36.4856 27.0936C36.8062 26.8313 37.2787 26.8785 37.541 27.1991C38.1225 27.9099 38.9651 28.7437 40.1614 29.2647C41.2016 29.7178 42.5554 29.9548 44.315 29.6103C44.3517 29.5852 44.3887 29.5606 44.426 29.5362C44.6137 29.4139 44.8358 29.3864 45.0361 29.4419L45.0532 29.4372C48.5263 28.4927 50.1438 25.7272 50.5868 23.7628C50.195 23.6257 49.8569 23.4859 49.5898 23.3352C49.4235 23.2414 49.2414 23.1198 49.0858 22.9582C48.927 22.7934 48.7534 22.5415 48.7089 22.2007C48.6167 21.4949 49.1248 21.0501 49.3244 20.8915C49.3828 20.8451 49.4453 20.7997 49.5109 20.7552C48.664 20.276 47.293 19.9089 45.1821 19.717C42.824 19.5026 41.3423 18.2734 40.0167 17.1737C39.9092 17.0845 39.8027 16.9962 39.6969 16.9093C38.2844 15.75 36.9012 14.75 34.4737 14.75C30.623 14.75 26.9536 15.3563 23.3382 17.7827C19.7093 20.218 16.056 24.5402 12.3611 32.1283C10.5978 36.3289 9.47028 40.7488 8.93775 42.9372C10.4086 42.5082 11.856 41.6112 13.1763 40.0433L13.7473 39.3652L14.3215 40.0407C15.4086 41.3197 17.4586 42.8634 20.0234 43.3106C22.5408 43.7495 25.6566 43.1511 28.9828 39.9833L29.5266 39.4654L30.0438 40.0099C31.278 41.309 33.4829 42.862 36.0434 43.3107C37.7571 43.611 39.6665 43.4249 41.6035 42.2734ZM38.6185 20.2171C38.6185 22.2772 36.9484 23.9473 34.8882 23.9473C32.8281 23.9473 31.158 22.2772 31.158 20.2171C31.158 18.1569 32.8281 16.4868 34.8882 16.4868C36.9484 16.4868 38.6185 18.1569 38.6185 20.2171ZM36.1316 18.9735C36.1316 19.4313 35.7605 19.8024 35.3026 19.8024C34.8448 19.8024 34.4737 19.4313 34.4737 18.9735C34.4737 18.5157 34.8448 18.1445 35.3026 18.1445C35.7605 18.1445 36.1316 18.5157 36.1316 18.9735ZM36.5461 21.4608C36.775 21.4608 36.9605 21.2752 36.9605 21.0463C36.9605 20.8174 36.775 20.6318 36.5461 20.6318C36.3172 20.6318 36.1316 20.8174 36.1316 21.0463C36.1316 21.2752 36.3172 21.4608 36.5461 21.4608ZM13.7473 45.8389L14.3215 46.5143C15.4086 47.7933 17.4586 49.3371 20.0234 49.7842C22.5408 50.2231 25.6566 49.6247 28.9828 46.4569L29.5266 45.9391L30.0438 46.4835C31.278 47.7827 33.4829 49.3357 36.0434 49.7843C38.5454 50.2227 41.4645 49.6245 44.2781 46.4983L44.8327 45.882L45.3905 46.4955C46.6968 47.9325 49.025 49.6435 51.7264 50.1376C54.3622 50.6197 57.4488 49.9645 60.4324 46.5098C60.7031 46.1963 61.1767 46.1617 61.4902 46.4324C61.8037 46.7032 61.8384 47.1768 61.5676 47.4903C58.2512 51.3303 54.6371 52.1949 51.4565 51.6131C48.709 51.1106 46.3589 49.5449 44.843 48.0828C41.8422 51.0934 38.6275 51.76 35.7845 51.2618C33.168 50.8033 30.927 49.3718 29.4817 48.0343C26.0294 51.0807 22.6466 51.7642 19.7658 51.2619C17.1938 50.8135 15.097 49.4338 13.7595 48.1107C11.0294 50.9506 7.8209 51.55 4.90778 51.0877C1.83964 50.6007 -0.896083 48.9444 -2.4902 47.5677C-2.80369 47.2969 -2.83834 46.8233 -2.5676 46.5098C-2.29687 46.1963 -1.82326 46.1617 -1.50977 46.4324C-0.0644183 47.6807 2.42222 49.1744 5.1429 49.6062C7.81535 50.0303 10.7162 49.4383 13.1763 46.5169L13.7473 45.8389ZM23.6876 21.3403C23.7539 21.7491 23.4763 22.1344 23.0674 22.2008C22.288 22.3273 21.9385 22.93 21.9616 23.3355C21.9719 23.5168 22.0516 23.6831 22.2482 23.8107C22.4622 23.9497 22.8813 24.0819 23.6166 24.0023C24.0284 23.9577 24.3984 24.2555 24.4429 24.6673C24.4875 25.0791 24.1898 25.449 23.778 25.4936C22.8257 25.5967 22.026 25.4549 21.4313 25.0688C20.8193 24.6713 20.5005 24.0614 20.464 23.4209C20.3934 22.1826 21.3564 20.9589 22.8271 20.7201C23.2359 20.6538 23.6212 20.9314 23.6876 21.3403ZM46.4052 22C46.4126 21.7821 46.2371 21.6055 46.0133 21.6055C43.9456 21.6055 42.5884 22.0658 41.5575 22.7542C40.7681 23.2812 40.1778 23.9437 39.6329 24.5551L39.6329 24.5551C39.4851 24.7209 39.3407 24.883 39.1965 25.0376C39.0436 25.2015 39.0523 25.4508 39.2159 25.5942C39.3795 25.7377 39.6361 25.7211 39.789 25.5571C39.959 25.3747 40.12 25.1944 40.2779 25.0176L40.2781 25.0174C40.8123 24.4192 41.3105 23.8612 42.0012 23.4C42.8686 22.8208 44.0544 22.3945 45.9867 22.3945C46.2105 22.3945 46.3979 22.2179 46.4052 22ZM46.7577 22.823C46.9733 22.7749 47.1871 22.9107 47.2352 23.1263C47.2833 23.3419 47.1475 23.5557 46.9319 23.6038C44.7222 24.0966 42.5842 25.144 41.3652 27.8705C41.275 28.0721 41.0384 28.1625 40.8368 28.0724C40.6351 27.9822 40.5447 27.7456 40.6349 27.5439C41.9934 24.5053 44.4038 23.348 46.7577 22.823ZM46.6341 24.1243C46.8349 24.0349 47.0712 24.1267 47.1619 24.3293C47.2526 24.5319 47.1633 24.7686 46.9625 24.8581C46.01 25.2822 44.618 26.2548 44.4381 27.9185C44.4143 28.1385 44.2174 28.2959 43.9984 28.2701C43.7793 28.2443 43.621 28.0451 43.6448 27.8251C43.8716 25.7271 45.6027 24.5836 46.6341 24.1243Z" fill="#083366"/>
</g>
<path d="M59.25 30C59.25 46.1543 46.1543 59.25 30 59.25C13.8457 59.25 0.75 46.1543 0.75 30C0.75 13.8457 13.8457 0.75 30 0.75C46.1543 0.75 59.25 13.8457 59.25 30Z" stroke="#083366" stroke-width="1.5"/>
</svg>
