<?xml version="1.0" standalone="no"?>
<!DOCTYPE svg PUBLIC "-//W3C//DTD SVG 20010904//EN" "http://www.w3.org/TR/2001/REC-SVG-20010904/DTD/svg10.dtd">
<!-- Created using Krita: https://krita.org -->
<svg xmlns="http://www.w3.org/2000/svg" 
    xmlns:xlink="http://www.w3.org/1999/xlink"
    xmlns:krita="http://krita.org/namespaces/svg/krita"
    xmlns:sodipodi="http://sodipodi.sourceforge.net/DTD/sodipodi-0.dtd"
    width="44.64pt"
    height="44.64pt"
    viewBox="0 0 44.64 44.64">
<defs>
  <mask id="clipmask0" maskUnits="userSpaceOnUse" maskContentUnits="userSpaceOnUse" x="0" y="0" width="60" height="60">
      <defs/>
   <g id="clipmask0_23f39b08" fill="none">
     <g id="clipmask0_7fdcf67c" fill="none">
      <g id="clipmask0" fill="none">
       <g id="mask0_671_274" fill="none">
        <circle id="shape0" transform="translate(0.75, 0.75)" r="29.25" cx="29.25" cy="29.25" fill="#d9d9d9" stroke="#e32057" stroke-width="1.5" stroke-linecap="butt" stroke-linejoin="miter" stroke-miterlimit="2"/>
       </g>
      </g>
     </g>
    </g>
  </mask>
 </defs>
<path id="shape0_3342f5f0" transform="matrix(0.72 0 0 0.72 53.251128 9.36)" fill="#e32057" stroke-opacity="0" stroke="#000000" stroke-width="0" stroke-linecap="square" stroke-linejoin="bevel" d="M0 14L0 0L5.7 0C6.46 0 7.1467 0.1933 7.76 0.58C8.3867 0.9533 8.8867 1.4667 9.26 2.12C9.6334 2.7733 9.82 3.5 9.82 4.3C9.82 5.1 9.6334 5.8267 9.26 6.48C8.8867 7.1333 8.3867 7.66 7.76 8.06C7.1467 8.4467 6.46 8.64 5.7 8.64L2.16 8.64L2.16 14ZM2.16 6.56L5.66 6.56C6.02 6.56 6.3467 6.46 6.64 6.26C6.9334 6.0467 7.1667 5.7733 7.34 5.44C7.5267 5.0933 7.62 4.7133 7.62 4.3C7.62 3.8867 7.5267 3.5133 7.34 3.18C7.1667 2.8467 6.9334 2.58 6.64 2.38C6.3467 2.18 6.02 2.08 5.66 2.08L2.16 2.08Z" sodipodi:nodetypes="cccccccccccccccccccccc"/><path id="shape1" transform="matrix(0.72 0 0 0.72 62.003304 11.7216)" fill="#e32057" stroke-opacity="0" stroke="#000000" stroke-width="0" stroke-linecap="square" stroke-linejoin="bevel" d="M0 10.72L0 0.22L2.08 0.22L2.08 3.52L1.88 2.72C2.0267 2.2133 2.2734 1.7533 2.62 1.34C2.98 0.9267 3.3867 0.6 3.84 0.36C4.3067 0.12 4.7867 0 5.28 0C5.5067 0 5.72 0.02 5.92 0.06C6.1334 0.1 6.3 0.1467 6.42 0.2L5.88 2.44C5.72 2.3733 5.54 2.32 5.34 2.28C5.1534 2.2267 4.9667 2.2 4.78 2.2C4.42 2.2 4.0734 2.2733 3.74 2.42C3.42 2.5533 3.1334 2.7467 2.88 3C2.64 3.24 2.4467 3.5267 2.3 3.86C2.1534 4.18 2.08 4.5333 2.08 4.92L2.08 10.72Z" sodipodi:nodetypes="ccccccccccccccccccc"/><path id="shape2" transform="matrix(0.72 0 0 0.72 67.026888 11.7216)" fill="#e32057" stroke-opacity="0" stroke="#000000" stroke-width="0" stroke-linecap="square" stroke-linejoin="bevel" d="M5.36 10.92C4.3333 10.92 3.4133 10.6867 2.6 10.22C1.8 9.74 1.1667 9.0933 0.7 8.28C0.2333 7.4533 0 6.5133 0 5.46C0 4.4067 0.2333 3.4733 0.7 2.66C1.1667 1.8333 1.8 1.1867 2.6 0.72C3.4133 0.24 4.3333 0 5.36 0C6.3733 0 7.28 0.24 8.0801 0.72C8.8931 1.1867 9.5331 1.8333 10.0001 2.66C10.4671 3.4733 10.7001 4.4067 10.7001 5.46C10.7001 6.5133 10.4671 7.4533 10.0001 8.28C9.5331 9.0933 8.8931 9.74 8.0801 10.22C7.28 10.6867 6.3733 10.92 5.36 10.92ZM5.36 9.04C5.9867 9.04 6.5467 8.8867 7.04 8.58C7.5333 8.26 7.9201 7.8333 8.2001 7.3C8.4801 6.7533 8.6131 6.14 8.6001 5.46C8.6131 4.7667 8.4801 4.1533 8.2001 3.62C7.9201 3.0733 7.5333 2.6467 7.04 2.34C6.5467 2.0333 5.9867 1.88 5.36 1.88C4.7333 1.88 4.1667 2.04 3.66 2.36C3.1667 2.6667 2.78 3.0933 2.5 3.64C2.22 4.1733 2.0867 4.78 2.1 5.46C2.0867 6.14 2.22 6.7533 2.5 7.3C2.78 7.8333 3.1667 8.26 3.66 8.58C4.1667 8.8867 4.7333 9.04 5.36 9.04Z" sodipodi:nodetypes="cccccccccccccccccccccccccc"/><path id="shape3" transform="matrix(0.72 0 0 0.72 76.31856 11.7504)" fill="#e32057" stroke-opacity="0" stroke="#000000" stroke-width="0" stroke-linecap="square" stroke-linejoin="bevel" d="M0 10.68L0 0.18L2.08 0.18L2.08 2.42L1.7 2.66C1.806 2.3133 1.973 1.98 2.2 1.66C2.44 1.34 2.726 1.06 3.06 0.82C3.406 0.5667 3.773 0.3667 4.16 0.22C4.56 0.0733 4.966 0 5.38 0C5.98 0 6.506 0.1 6.96 0.3C7.413 0.5 7.786 0.8 8.08 1.2C8.373 1.6 8.586 2.1 8.72 2.7L8.4 2.62L8.54 2.28C8.686 1.9733 8.886 1.6867 9.14 1.42C9.406 1.14 9.706 0.8933 10.04 0.68C10.373 0.4667 10.726 0.3 11.1 0.18C11.473 0.06 11.84 0 12.2 0C12.986 0 13.633 0.16 14.14 0.48C14.66 0.8 15.046 1.2867 15.3 1.94C15.566 2.5933 15.7 3.4067 15.7 4.38L15.7 10.68L13.62 10.68L13.62 4.5C13.62 3.9 13.54 3.4133 13.38 3.04C13.233 2.6533 13.006 2.3667 12.7 2.18C12.393 1.9933 12 1.9 11.52 1.9C11.146 1.9 10.793 1.9667 10.46 2.1C10.14 2.22 9.86 2.3933 9.62 2.62C9.38 2.8467 9.193 3.1133 9.06 3.42C8.926 3.7133 8.86 4.04 8.86 4.4L8.86 10.68L6.78 10.68L6.78 4.46C6.78 3.9133 6.7 3.4533 6.54 3.08C6.38 2.6933 6.146 2.4 5.84 2.2C5.533 2 5.16 1.9 4.72 1.9C4.346 1.9 4 1.9667 3.68 2.1C3.36 2.22 3.08 2.3933 2.84 2.62C2.6 2.8333 2.413 3.0933 2.28 3.4C2.146 3.6933 2.08 4.0133 2.08 4.36L2.08 10.68Z" sodipodi:nodetypes="ccccccccccccccccccccccccccccccccccccccccccc"/><path id="shape4" transform="matrix(0.72 0 0 0.72 89.60832 11.7504)" fill="#e32057" stroke-opacity="0" stroke="#000000" stroke-width="0" stroke-linecap="square" stroke-linejoin="bevel" d="M0 15.08L0 0.18L2.08 0.18L2.08 2.58L1.76 2.4C1.84 2 2.066 1.62 2.44 1.26C2.813 0.8867 3.266 0.5867 3.8 0.36C4.346 0.12 4.906 0 5.48 0C6.426 0 7.266 0.2333 8 0.7C8.733 1.1667 9.313 1.8067 9.74 2.62C10.166 3.4333 10.38 4.3667 10.38 5.42C10.38 6.46 10.166 7.3933 9.74 8.22C9.326 9.0333 8.753 9.68 8.02 10.16C7.286 10.6267 6.46 10.86 5.54 10.86C4.926 10.86 4.333 10.74 3.76 10.5C3.186 10.2467 2.7 9.9267 2.3 9.54C1.9 9.1533 1.653 8.7533 1.56 8.34L2.08 8.06L2.08 15.08ZM5.2 8.96C5.813 8.96 6.36 8.8067 6.84 8.5C7.32 8.1933 7.7 7.7733 7.98 7.24C8.26 6.7067 8.4 6.1 8.4 5.42C8.4 4.74 8.26 4.14 7.98 3.62C7.713 3.0867 7.34 2.6667 6.86 2.36C6.38 2.0533 5.826 1.9 5.2 1.9C4.573 1.9 4.02 2.0533 3.54 2.36C3.06 2.6533 2.68 3.0667 2.4 3.6C2.12 4.1333 1.98 4.74 1.98 5.42C1.98 6.1 2.12 6.7067 2.4 7.24C2.68 7.7733 3.06 8.1933 3.54 8.5C4.02 8.8067 4.573 8.96 5.2 8.96Z" sodipodi:nodetypes="ccccccccccccccccccccccccccccccccc"/><path id="shape5" transform="matrix(0.72 0 0 0.72 98.05896 9.9504)" fill="#e32057" stroke-opacity="0" stroke="#000000" stroke-width="0" stroke-linecap="square" stroke-linejoin="bevel" d="M2.18 13.18L2.18 0L4.24 0L4.24 13.18ZM0 4.68L0 2.68L6.68 2.68L6.68 4.68Z" sodipodi:nodetypes="cccccccccc"/><path id="shape6" transform="matrix(0.72 0 0 0.72 52.876728 25.2)" fill="#e32057" stroke-opacity="0" stroke="#000000" stroke-width="0" stroke-linecap="square" stroke-linejoin="bevel" d="M0 14L0 12L2.26 12L2.26 2L0 2L0 0L6.68 0L6.68 2L4.42 2L4.42 12L6.68 12L6.68 14Z" sodipodi:nodetypes="ccccccccccccc"/><path id="shape7" transform="matrix(0.72 0 0 0.72 59.753304 27.5616)" fill="#e32057" stroke-opacity="0" stroke="#000000" stroke-width="0" stroke-linecap="square" stroke-linejoin="bevel" d="M0 10.72L0 0.22L2.06 0.22L2.06 2.38L1.7 2.62C1.8334 2.1533 2.0934 1.7267 2.48 1.34C2.8667 0.94 3.3267 0.62 3.86 0.38C4.3934 0.1267 4.94 0 5.5 0C6.3 0 6.9667 0.16 7.5 0.48C8.0334 0.7867 8.4334 1.26 8.7 1.9C8.9667 2.54 9.1 3.3467 9.1 4.32L9.1 10.72L7.04 10.72L7.04 4.46C7.04 3.86 6.96 3.3667 6.8 2.98C6.64 2.58 6.3934 2.2933 6.06 2.12C5.7267 1.9333 5.3134 1.8533 4.82 1.88C4.42 1.88 4.0534 1.9467 3.72 2.08C3.3867 2.2 3.0934 2.3733 2.84 2.6C2.6 2.8267 2.4067 3.0933 2.26 3.4C2.1267 3.6933 2.06 4.0133 2.06 4.36L2.06 10.72L1.04 10.72C0.8667 10.72 0.6934 10.72 0.52 10.72C0.3467 10.72 0.1734 10.72 0 10.72Z" sodipodi:nodetypes="ccccccccccccccccccccccccc"/><path id="shape8" transform="matrix(0.72 0 0 0.72 67.597416 27.72)" fill="#e32057" stroke-opacity="0" stroke="#000000" stroke-width="0" stroke-linecap="square" stroke-linejoin="bevel" d="M4.44 10.5L0 0L2.22 0L5.42 7.86L5.04 8.04L8.4597 0L10.5797 0L5.92 10.5Z" sodipodi:nodetypes="ccccccccc"/><path id="shape9" transform="matrix(0.72 0 0 0.72 75.90024 27.5472)" fill="#e32057" stroke-opacity="0" stroke="#000000" stroke-width="0" stroke-linecap="square" stroke-linejoin="bevel" d="M5.54 10.94C4.46 10.94 3.5 10.7133 2.66 10.26C1.833 9.7933 1.18 9.16 0.7 8.36C0.233 7.56 0 6.64 0 5.6C0 4.7733 0.133 4.02 0.4 3.34C0.667 2.66 1.033 2.0733 1.5 1.58C1.98 1.0733 2.547 0.6867 3.2 0.42C3.867 0.14 4.587 0 5.36 0C6.04 0 6.673 0.1333 7.26 0.4C7.847 0.6533 8.353 1.0067 8.78 1.46C9.22 1.9133 9.553 2.4533 9.78 3.08C10.02 3.6933 10.133 4.3667 10.12 5.1L10.1 5.98L1.52 5.98L1.06 4.34L8.32 4.34L8.02 4.68L8.02 4.2C7.98 3.76 7.833 3.3667 7.58 3.02C7.327 2.6733 7.007 2.4 6.62 2.2C6.233 2 5.813 1.9 5.36 1.9C4.64 1.9 4.033 2.04 3.54 2.32C3.047 2.5867 2.673 2.9867 2.42 3.52C2.167 4.04 2.04 4.6867 2.04 5.46C2.04 6.1933 2.193 6.8333 2.5 7.38C2.807 7.9133 3.24 8.3267 3.8 8.62C4.36 8.9133 5.007 9.06 5.74 9.06C6.26 9.06 6.74 8.9733 7.18 8.8C7.633 8.6267 8.12 8.3133 8.64 7.86L9.68 9.32C9.36 9.64 8.967 9.92 8.5 10.16C8.047 10.4 7.56 10.5933 7.04 10.74C6.533 10.8733 6.033 10.94 5.54 10.94Z" sodipodi:nodetypes="ccccccccccccccccccccccccccccccccc"/><path id="shape10" transform="matrix(0.72 0 0 0.72 84.79872 27.5616)" fill="#e32057" stroke-opacity="0" stroke="#000000" stroke-width="0" stroke-linecap="square" stroke-linejoin="bevel" d="M0 10.72L0 0.22L2.08 0.22L2.08 3.52L1.88 2.72C2.027 2.2133 2.273 1.7533 2.62 1.34C2.98 0.9267 3.387 0.6 3.84 0.36C4.307 0.12 4.787 0 5.28 0C5.507 0 5.72 0.02 5.92 0.06C6.133 0.1 6.3 0.1467 6.42 0.2L5.88 2.44C5.72 2.3733 5.54 2.32 5.34 2.28C5.153 2.2267 4.967 2.2 4.78 2.2C4.42 2.2 4.073 2.2733 3.74 2.42C3.42 2.5533 3.133 2.7467 2.88 3C2.64 3.24 2.447 3.5267 2.3 3.86C2.153 4.18 2.08 4.5333 2.08 4.92L2.08 10.72Z" sodipodi:nodetypes="ccccccccccccccccccc"/><path id="shape11" transform="matrix(0.72 0 0 0.72 90.14544 27.5616)" fill="#e32057" stroke-opacity="0" stroke="#000000" stroke-width="0" stroke-linecap="square" stroke-linejoin="bevel" d="M4.14 10.92C3.26 10.92 2.467 10.7667 1.76 10.46C1.054 10.1533 0.467 9.7 0 9.1L1.4 7.9C1.8 8.3667 2.234 8.7067 2.7 8.92C3.18 9.12 3.72 9.22 4.32 9.22C4.56 9.22 4.78 9.1933 4.98 9.14C5.194 9.0733 5.374 8.98 5.52 8.86C5.68 8.74 5.8 8.6 5.88 8.44C5.96 8.2667 6 8.08 6 7.88C6 7.5333 5.874 7.2533 5.62 7.04C5.487 6.9467 5.274 6.8467 4.98 6.74C4.7 6.62 4.334 6.5 3.88 6.38C3.107 6.18 2.474 5.9533 1.98 5.7C1.487 5.4467 1.107 5.16 0.84 4.84C0.64 4.5867 0.494 4.3133 0.4 4.02C0.307 3.7133 0.26 3.38 0.26 3.02C0.26 2.58 0.354 2.18 0.54 1.82C0.74 1.4467 1.007 1.1267 1.34 0.86C1.687 0.58 2.087 0.3667 2.54 0.22C3.007 0.0733 3.5 0 4.02 0C4.514 0 5 0.0667 5.48 0.2C5.974 0.3333 6.427 0.5267 6.84 0.78C7.254 1.0333 7.6 1.3333 7.88 1.68L6.7 2.98C6.447 2.7267 6.167 2.5067 5.86 2.32C5.567 2.12 5.267 1.9667 4.96 1.86C4.654 1.7533 4.374 1.7 4.12 1.7C3.84 1.7 3.587 1.7267 3.36 1.78C3.134 1.8333 2.94 1.9133 2.78 2.02C2.634 2.1267 2.52 2.26 2.44 2.42C2.36 2.58 2.32 2.76 2.32 2.96C2.334 3.1333 2.374 3.3 2.44 3.46C2.52 3.6067 2.627 3.7333 2.76 3.84C2.907 3.9467 3.127 4.06 3.42 4.18C3.714 4.3 4.087 4.4133 4.54 4.52C5.207 4.6933 5.754 4.8867 6.18 5.1C6.62 5.3 6.967 5.5333 7.22 5.8C7.487 6.0533 7.674 6.3467 7.78 6.68C7.887 7.0133 7.94 7.3867 7.94 7.8C7.94 8.4 7.767 8.94 7.42 9.42C7.087 9.8867 6.634 10.2533 6.06 10.52C5.487 10.7867 4.847 10.92 4.14 10.92Z" sodipodi:nodetypes="ccccccccccccccccccccccccccccccccccccccccccc"/><path id="shape12" transform="matrix(0.72 0 0 0.72 97.46856 24.1776)" fill="#e32057" stroke-opacity="0" stroke="#000000" stroke-width="0" stroke-linecap="square" stroke-linejoin="bevel" d="M0.38 15.42L0.38 4.92L2.44 4.92L2.44 15.42ZM1.38 2.6C0.94 2.6 0.6 2.4867 0.36 2.26C0.12 2.0333 0 1.7133 0 1.3C0 0.9133 0.12 0.6 0.36 0.36C0.613 0.12 0.953 0 1.38 0C1.82 0 2.16 0.1133 2.4 0.34C2.64 0.5667 2.76 0.8867 2.76 1.3C2.76 1.6867 2.633 2 2.38 2.24C2.14 2.48 1.806 2.6 1.38 2.6Z" sodipodi:nodetypes="cccccccccccccc"/><path id="shape13" transform="matrix(0.72 0 0 0.72 101.04408 27.5616)" fill="#e32057" stroke-opacity="0" stroke="#000000" stroke-width="0" stroke-linecap="square" stroke-linejoin="bevel" d="M5.36 10.92C4.333 10.92 3.413 10.6867 2.6 10.22C1.8 9.74 1.167 9.0933 0.7 8.28C0.233 7.4533 0 6.5133 0 5.46C0 4.4067 0.233 3.4733 0.7 2.66C1.167 1.8333 1.8 1.1867 2.6 0.72C3.413 0.24 4.333 0 5.36 0C6.373 0 7.28 0.24 8.08 0.72C8.893 1.1867 9.533 1.8333 10 2.66C10.467 3.4733 10.7 4.4067 10.7 5.46C10.7 6.5133 10.467 7.4533 10 8.28C9.533 9.0933 8.893 9.74 8.08 10.22C7.28 10.6867 6.373 10.92 5.36 10.92ZM5.36 9.04C5.987 9.04 6.547 8.8867 7.04 8.58C7.533 8.26 7.92 7.8333 8.2 7.3C8.48 6.7533 8.613 6.14 8.6 5.46C8.613 4.7667 8.48 4.1533 8.2 3.62C7.92 3.0733 7.533 2.6467 7.04 2.34C6.547 2.0333 5.987 1.88 5.36 1.88C4.733 1.88 4.167 2.04 3.66 2.36C3.167 2.6667 2.78 3.0933 2.5 3.64C2.22 4.1733 2.087 4.78 2.1 5.46C2.087 6.14 2.22 6.7533 2.5 7.3C2.78 7.8333 3.167 8.26 3.66 8.58C4.167 8.8867 4.733 9.04 5.36 9.04Z" sodipodi:nodetypes="cccccccccccccccccccccccccc"/><path id="shape14" transform="matrix(0.72 0 0 0.72 110.36448 27.5616)" fill="#e32057" stroke-opacity="0" stroke="#000000" stroke-width="0" stroke-linecap="square" stroke-linejoin="bevel" d="M0 10.72L0 0.22L2.06 0.22L2.06 2.38L1.7 2.62C1.833 2.1533 2.093 1.7267 2.48 1.34C2.866 0.94 3.326 0.62 3.86 0.38C4.393 0.1267 4.94 0 5.5 0C6.3 0 6.966 0.16 7.5 0.48C8.033 0.7867 8.433 1.26 8.7 1.9C8.966 2.54 9.1 3.3467 9.1 4.32L9.1 10.72L7.04 10.72L7.04 4.46C7.04 3.86 6.96 3.3667 6.8 2.98C6.64 2.58 6.393 2.2933 6.06 2.12C5.726 1.9333 5.313 1.8533 4.82 1.88C4.42 1.88 4.053 1.9467 3.72 2.08C3.386 2.2 3.093 2.3733 2.84 2.6C2.6 2.8267 2.406 3.0933 2.26 3.4C2.126 3.6933 2.06 4.0133 2.06 4.36L2.06 10.72L1.04 10.72C0.866 10.72 0.693 10.72 0.52 10.72C0.346 10.72 0.173 10.72 0 10.72Z" sodipodi:nodetypes="ccccccccccccccccccccccccc"/><g id="group0" transform="matrix(0.72 0 0 0.72 0.719999999999999 0.719999999999999)" fill="none" mask="url(#clipmask0)">
  <path id="shape15" transform="translate(-2.7499981456146, 13.25)" fill="#e32057" fill-rule="evenodd" stroke-opacity="0" stroke="#000000" stroke-width="0" stroke-linecap="square" stroke-linejoin="bevel" d="M25.2523 3.2871C29.2011 0.6371 33.1995 0 37.2237 0C40.1843 0 41.9097 1.2778 43.3986 2.4999C43.4949 2.5789 43.5898 2.6573 43.6838 2.7349L43.684 2.7351C45.0438 3.8576 46.188 4.8023 48.0679 4.9732C50.3807 5.1834 52.0808 5.6115 53.219 6.3309C53.8005 6.6984 54.2474 7.1495 54.5448 7.693C54.8421 8.2364 54.9671 8.8305 54.9671 9.4504C54.9671 11.8306 53.1469 16.2885 48.1968 17.6346C48.0251 17.6813 47.8558 17.7235 47.689 17.7613C45.8487 19.1969 44.9321 22.2591 45.7255 28.0422C46.1609 27.6758 46.5957 27.2551 47.0281 26.7747L47.5827 26.1584L48.1405 26.7719C49.4468 28.2088 51.775 29.9199 54.4764 30.414C57.1122 30.8961 60.1988 30.2409 63.1824 26.7862C63.4531 26.4727 63.9267 26.4381 64.2402 26.7088C64.5537 26.9795 64.5884 27.4531 64.3176 27.7666C61.0012 31.6067 57.3871 32.4712 54.2065 31.8895C51.459 31.387 49.1089 29.8213 47.593 28.3592C44.5922 31.3697 41.3775 32.0363 38.5345 31.5382C35.918 31.0797 33.677 29.6482 32.2317 28.3107C28.7794 31.3571 25.3966 32.0406 22.5158 31.5383C19.9438 31.0899 17.847 29.7102 16.5095 28.387C13.7794 31.227 10.5709 31.8264 7.65778 31.364C4.58964 30.8771 1.85392 29.2208 0.259798 27.844C-0.053692 27.5733 -0.088342 27.0997 0.182398 26.7862C0.453128 26.4727 0.926738 26.4381 1.24023 26.7088C2.68558 27.9571 5.17222 29.4508 7.8929 29.8826C8.60779 29.996 9.33902 30.0368 10.0738 29.9797L10.0981 29.8786C10.5582 27.9669 11.7562 22.9891 13.7362 18.2781L13.7442 18.2591L13.7533 18.2406C17.5158 10.5083 21.32 5.9262 25.2523 3.2871ZM44.3535 29.0234C43.5612 23.9513 43.9025 20.3161 45.4277 18.0244C44.2335 18.0216 43.1999 17.7765 42.3124 17.3899C40.8145 16.7375 39.792 15.708 39.1301 14.899C38.8678 14.5784 38.915 14.1059 39.2356 13.8436C39.5562 13.5813 40.0287 13.6285 40.291 13.9491C40.8725 14.6599 41.7151 15.4937 42.9114 16.0147C43.9516 16.4678 45.3054 16.7048 47.065 16.3603C47.1017 16.3352 47.1387 16.3106 47.176 16.2862C47.3637 16.1639 47.5858 16.1364 47.7861 16.1919L47.8032 16.1872C51.2763 15.2427 52.8938 12.4772 53.3368 10.5128C52.945 10.3757 52.6069 10.2359 52.3398 10.0852C52.1735 9.9914 51.9914 9.8698 51.8358 9.7082C51.677 9.5434 51.5034 9.2915 51.4589 8.9507C51.3667 8.2449 51.8748 7.8001 52.0744 7.6415C52.1328 7.5951 52.1953 7.5497 52.2609 7.5052C51.414 7.026 50.043 6.6589 47.9321 6.467C45.574 6.2526 44.0923 5.0234 42.7667 3.9237C42.6592 3.8345 42.5527 3.7462 42.4469 3.6593C41.0344 2.5 39.6512 1.5 37.2237 1.5C33.373 1.5 29.7036 2.1063 26.0882 4.5327C22.4593 6.968 18.806 11.2902 15.1111 18.8783C13.3478 23.0789 12.2203 27.4988 11.6877 29.6872C13.1586 29.2582 14.606 28.3612 15.9263 26.7933L16.4973 26.1152L17.0715 26.7907C18.1586 28.0697 20.2086 29.6134 22.7734 30.0606C25.2908 30.4995 28.4066 29.9011 31.7328 26.7333L32.2766 26.2154L32.7938 26.7599C34.028 28.059 36.2329 29.612 38.7934 30.0607C40.5071 30.361 42.4165 30.1749 44.3535 29.0234ZM41.3685 6.9671C41.3685 9.0272 39.6984 10.6973 37.6382 10.6973C35.5781 10.6973 33.908 9.0272 33.908 6.9671C33.908 4.9069 35.5781 3.2368 37.6382 3.2368C39.6984 3.2368 41.3685 4.9069 41.3685 6.9671ZM38.8816 5.7235C38.8816 6.1813 38.5105 6.5524 38.0526 6.5524C37.5948 6.5524 37.2237 6.1813 37.2237 5.7235C37.2237 5.2657 37.5948 4.8945 38.0526 4.8945C38.5105 4.8945 38.8816 5.2657 38.8816 5.7235ZM39.2961 8.2108C39.525 8.2108 39.7105 8.0252 39.7105 7.7963C39.7105 7.5674 39.525 7.3818 39.2961 7.3818C39.0672 7.3818 38.8816 7.5674 38.8816 7.7963C38.8816 8.0252 39.0672 8.2108 39.2961 8.2108ZM16.4973 32.5889L17.0715 33.2643C18.1586 34.5433 20.2086 36.0871 22.7734 36.5342C25.2908 36.9731 28.4066 36.3747 31.7328 33.2069L32.2766 32.6891L32.7938 33.2335C34.028 34.5327 36.2329 36.0857 38.7934 36.5343C41.2954 36.9727 44.2145 36.3745 47.0281 33.2483L47.5827 32.632L48.1405 33.2455C49.4468 34.6825 51.775 36.3935 54.4764 36.8876C57.1122 37.3697 60.1988 36.7145 63.1824 33.2598C63.4531 32.9463 63.9267 32.9117 64.2402 33.1824C64.5537 33.4532 64.5884 33.9268 64.3176 34.2403C61.0012 38.0803 57.3871 38.9449 54.2065 38.3631C51.459 37.8606 49.1089 36.2949 47.593 34.8328C44.5922 37.8434 41.3775 38.51 38.5345 38.0118C35.918 37.5533 33.677 36.1218 32.2317 34.7843C28.7794 37.8307 25.3966 38.5142 22.5158 38.0119C19.9438 37.5635 17.847 36.1838 16.5095 34.8607C13.7794 37.7006 10.5709 38.3 7.65778 37.8377C4.58964 37.3507 1.85392 35.6944 0.259798 34.3177C-0.053692 34.0469 -0.088342 33.5733 0.182398 33.2598C0.453128 32.9463 0.926738 32.9117 1.24023 33.1824C2.68558 34.4307 5.17222 35.9244 7.8929 36.3562C10.5653 36.7803 13.4662 36.1883 15.9263 33.2669ZM26.4376 8.0903C26.5039 8.4991 26.2263 8.8844 25.8174 8.9508C25.038 9.0773 24.6885 9.68 24.7116 10.0855C24.7219 10.2668 24.8016 10.4331 24.9982 10.5607C25.2122 10.6997 25.6313 10.8319 26.3666 10.7523C26.7784 10.7077 27.1484 11.0055 27.1929 11.4173C27.2375 11.8291 26.9398 12.199 26.528 12.2436C25.5757 12.3467 24.776 12.2049 24.1813 11.8188C23.5693 11.4213 23.2505 10.8114 23.214 10.1709C23.1434 8.9326 24.1064 7.7089 25.5771 7.4701C25.9859 7.4038 26.3712 7.6814 26.4376 8.0903ZM49.1552 8.75C49.1626 8.5321 48.9871 8.3555 48.7633 8.3555C46.6956 8.3555 45.3384 8.8158 44.3075 9.5042C43.5181 10.0312 42.9278 10.6937 42.3829 11.3051L42.3829 11.3051C42.2351 11.4709 42.0907 11.633 41.9465 11.7876C41.7936 11.9515 41.8023 12.2008 41.9659 12.3442C42.1295 12.4877 42.3861 12.4711 42.539 12.3071C42.709 12.1247 42.87 11.9444 43.0279 11.7676L43.0281 11.7674C43.5623 11.1692 44.0605 10.6112 44.7512 10.15C45.6186 9.5708 46.8044 9.1445 48.7367 9.1445C48.9605 9.1445 49.1479 8.9679 49.1552 8.75ZM49.5077 9.573C49.7233 9.5249 49.9371 9.6607 49.9852 9.8763C50.0333 10.0919 49.8975 10.3057 49.6819 10.3538C47.4722 10.8466 45.3342 11.894 44.1152 14.6205C44.025 14.8221 43.7884 14.9125 43.5868 14.8224C43.3851 14.7322 43.2947 14.4956 43.3849 14.2939C44.7434 11.2553 47.1538 10.098 49.5077 9.573ZM49.3841 10.8743C49.5849 10.7849 49.8212 10.8767 49.9119 11.0793C50.0026 11.2819 49.9133 11.5186 49.7125 11.6081C48.76 12.0322 47.368 13.0048 47.1881 14.6685C47.1643 14.8885 46.9674 15.0459 46.7484 15.0201C46.5293 14.9943 46.371 14.7951 46.3948 14.5751C46.6216 12.4771 48.3527 11.3336 49.3841 10.8743Z" sodipodi:nodetypes="ccccccccccccccccccccccccccccccccccccccccccccccccccccccccccccccccccccccccccccccccccccccccccccccccccccccccccccccccccccccccccccccccccccccccccccccccccccc"/>
 </g><path id="shape16" transform="matrix(0.72 0 0 0.72 1.26 1.26)" fill="none" stroke="#e32057" stroke-width="1.5" stroke-linecap="butt" stroke-linejoin="miter" stroke-miterlimit="2" d="M58.5 29.25C58.5 45.4043 45.4043 58.5 29.25 58.5C13.0957 58.5 0 45.4043 0 29.25C0 13.0957 13.0957 0 29.25 0C45.4043 0 58.5 13.0957 58.5 29.25Z" sodipodi:nodetypes="ccccc"/>
</svg>
